<svg width="375" height="645" viewBox="0 0 375 645" fill="none" xmlns="http://www.w3.org/2000/svg">
<rect y="21" width="375" height="66" fill="#3D1A06"/>
<rect y="579" width="375" height="66" fill="#3D1A06"/>
<rect x="0.5" y="21.5853" width="376" height="56.6434" rx="1.5" fill="#915030" stroke="#66351D"/>
<rect x="-0.5" y="0.5" width="376" height="34.0853" transform="matrix(1 0 0 -1 1 23.0853)" fill="#915030" stroke="#66351D"/>
<rect x="0.5" y="-8.49231" width="376" height="19.0465" rx="1.5" fill="#FFB15F" stroke="#66351D"/>
<rect x="0.5" y="21.5853" width="376" height="49.124" rx="1.5" fill="#A55C26" stroke="#66351D"/>
<rect x="1.5" y="22.5853" width="48.4186" height="44.1163" fill="#FF9D33" stroke="#915030"/>
<rect x="48.0116" y="22.5853" width="48.4186" height="44.1163" fill="#FF9D33" stroke="#915030"/>
<rect x="94.5232" y="22.5853" width="48.4186" height="44.1163" fill="#FF9D33" stroke="#915030"/>
<rect x="141.035" y="22.5853" width="48.4186" height="44.1163" fill="#FF9D33" stroke="#915030"/>
<rect x="187.547" y="22.5853" width="48.4186" height="44.1163" fill="#FF9D33" stroke="#915030"/>
<rect x="234.058" y="22.5853" width="48.4186" height="44.1163" fill="#FF9D33" stroke="#915030"/>
<rect x="280.57" y="22.5853" width="48.4186" height="44.1163" fill="#FF9D33" stroke="#915030"/>
<rect x="327.081" y="22.5853" width="48.4186" height="44.1163" fill="#FF9D33" stroke="#915030"/>
</svg>
